<?xml version="1.0" encoding="utf-8"?>
<!-- Generator: Adobe Illustrator 23.0.6, SVG Export Plug-In . SVG Version: 6.00 Build 0)  -->
<svg version="1.1" id="Ñëîé_1" xmlns="http://www.w3.org/2000/svg" xmlns:xlink="http://www.w3.org/1999/xlink" x="0px" y="0px"
	 viewBox="0 0 850.39 850.39" style="enable-background:new 0 0 850.39 850.39;" xml:space="preserve">
<style type="text/css">
	.st0{fill-rule:evenodd;clip-rule:evenodd;fill:#F9FF00;}
	.st1{fill-rule:evenodd;clip-rule:evenodd;fill:#CCFF99;}
	.st2{fill-rule:evenodd;clip-rule:evenodd;fill:#CCCC99;}
	.st3{fill-rule:evenodd;clip-rule:evenodd;fill:#FFFF00;}
	.st4{fill-rule:evenodd;clip-rule:evenodd;fill:#FF1200;}
	.st5{fill-rule:evenodd;clip-rule:evenodd;}
	.st6{fill-rule:evenodd;clip-rule:evenodd;fill:#0033FF;}
</style>
<g>
	<g>
		<path class="st0" d="M207.39,441.86c-24.32-19.44-28.14-54.82-8.7-79.12l140-174.87c19.45-24.3,55.23-28.11,79.21-8.68
			c24.31,19.09,28.13,54.83,8.68,79.11L286.94,432.83C267.49,457.12,231.71,461.29,207.39,441.86L207.39,441.86z"/>
		<path class="st1" d="M419.29,237.13l-75.73,8.34c-8,1.03-15.63-4.87-16.33-12.84c-0.7-8.33,4.86-15.6,13.2-16.66l75.39-8.32
			c8.34-1.05,15.63,5.2,16.66,13.18C433.53,228.81,427.63,236.45,419.29,237.13L419.29,237.13z"/>
		<path class="st2" d="M352.24,320.76l-75.72,8.67c-8,0.7-15.63-5.2-16.34-13.18c-1.05-8.33,4.87-15.62,13.2-16.3l75.73-8.33
			c7.99-1.04,15.29,4.86,15.98,12.84C366.14,312.78,360.58,320.06,352.24,320.76L352.24,320.76z"/>
		<path class="st1" d="M285.21,404.72l-75.73,8.34c-8.34,1.03-15.63-4.87-16.32-13.17c-1.05-8,4.87-15.27,12.85-16.32l76.07-8.32
			c8-1.05,15.28,4.85,16.33,13.17C299.1,396.4,293.19,403.69,285.21,404.72L285.21,404.72z"/>
		<path class="st3" d="M524.89,479.33c0,58.63-47.59,105.82-106.3,105.82c-58.36,0-105.94-47.19-105.94-105.82
			c0-58.64,47.58-105.82,105.94-105.82C477.3,373.51,524.89,420.69,524.89,479.33L524.89,479.33z"/>
		<path class="st3" d="M348.03,569.54H198.65c-9.03,0-15.98-7.29-15.98-15.96v-83.27c0-9.02,6.95-16.3,15.98-16.3h149.38
			c9.03,0,15.98,7.29,15.98,16.3v83.27C364.01,562.25,357.06,569.54,348.03,569.54L348.03,569.54z"/>
		<path class="st4" d="M760.42,148.66h-66.7c-3.48,0-6.6,1.04-9.03,3.47L563.22,273.48c-9.46-5.66-20.54-8.94-32.43-8.94h-396.7
			c-35.08,0-63.22,28.47-63.22,63.16v204.37c0,34.7,28.14,63.15,63.22,63.15h10.77v69.76h29.19v-69.76h316.8v69.76h29.18v-69.76
			h10.77c35.09,0,63.23-28.44,63.23-63.15V327.7c0-13.93-4.55-26.86-12.25-37.34l117.17-116.71h61.48c6.95,0,12.52-5.55,12.52-12.84
			C772.93,154.2,767.36,148.66,760.42,148.66z M193.15,563.3h-59.06c-17.36,0-31.26-13.88-31.26-31.23V327.7
			c0-17.34,13.9-31.22,31.26-31.22h59.06V563.3z M317.85,563.3h-95.17V296.48h95.17V563.3z M442.22,563.3h-95.19V296.48h95.19V563.3
			z M562.07,532.06c0,17.35-14.25,31.23-31.28,31.23H471.4V296.48h59.39c17.03,0,31.28,13.88,31.28,31.22V532.06z"/>
		<path class="st4" d="M200.78,670.17c0,22.89-18.75,41.28-41.33,41.28c-22.93,0-41.34-18.39-41.34-41.28
			c0-22.56,18.41-40.95,41.34-40.95C182.03,629.23,200.78,647.61,200.78,670.17L200.78,670.17z"/>
		<path class="st5" d="M186.2,670.17c0,14.91-11.81,27.05-26.74,27.05c-14.95,0-26.75-12.15-26.75-27.05
			c0-14.58,11.8-26.73,26.75-26.73C174.38,643.45,186.2,655.59,186.2,670.17L186.2,670.17z"/>
		<path class="st4" d="M546.78,670.17c0,22.89-18.75,41.28-41.33,41.28c-22.93,0-41.34-18.39-41.34-41.28
			c0-22.56,18.41-40.95,41.34-40.95C528.03,629.23,546.78,647.61,546.78,670.17L546.78,670.17z"/>
		<path class="st5" d="M532.19,670.17c0,14.91-12.16,27.05-26.74,27.05c-14.95,0-26.75-12.15-26.75-27.05
			c0-14.58,11.8-26.73,26.75-26.73C520.03,643.45,532.19,655.59,532.19,670.17L532.19,670.17z"/>
		<path class="st6" d="M779.53,160.81c0,12.14-10.08,22.2-22.23,22.2c-12.16,0-21.9-10.06-21.9-22.2c0-11.8,9.73-21.87,21.9-21.87
			C769.45,138.94,779.53,149,779.53,160.81L779.53,160.81z"/>
	</g>
</g>
</svg>
